HIERARCHY
ROOT newVegas:Hips
{
	OFFSET 0.000000 96.479958 0.000000
	CHANNELS 6 Xposition Yposition Zposition Xrotation Yrotation Zrotation
	JOINT newVegas:Pelvis
	{
		OFFSET 0.000000 0.000000 0.000000
		CHANNELS 3 Xrotation Yrotation Zrotation
		JOINT newVegas:LeftUpLeg
		{
			OFFSET 18.735201 -5.666702 -4.541200
			CHANNELS 3 Xrotation Yrotation Zrotation
			JOINT newVegas:LeftLeg
			{
				OFFSET -0.021200 -31.938179 0.493100
				CHANNELS 3 Xrotation Yrotation Zrotation
				JOINT newVegas:LeftFoot
				{
					OFFSET 0.021200 -31.938179 -4.336299
					CHANNELS 3 Xrotation Yrotation Zrotation
					JOINT newVegas:LeftToeBase
					{
						OFFSET 0.943001 -26.722000 15.023500
						CHANNELS 3 Xrotation Yrotation Zrotation
						End Site
						{
							OFFSET 0.000000 30.670183 0.000000
						}
					}
				}
				JOINT newVegas:Left_PantLeg
				{
					OFFSET 0.663870 -9.044666 -1.108900
					CHANNELS 3 Xrotation Yrotation Zrotation
					End Site
					{
						OFFSET 1.415995 20.635357 0.000000
					}
				}
			}
		}
		JOINT newVegas:RightUpLeg
		{
			OFFSET -18.735201 -5.666702 -4.541200
			CHANNELS 3 Xrotation Yrotation Zrotation
			JOINT newVegas:RightLeg
			{
				OFFSET 0.018946 -31.938133 0.493100
				CHANNELS 3 Xrotation Yrotation Zrotation
				JOINT newVegas:RightFoot
				{
					OFFSET -0.018946 -31.938126 -4.336299
					CHANNELS 3 Xrotation Yrotation Zrotation
					JOINT newVegas:RightToeBase
					{
						OFFSET -0.943001 -26.722004 15.023500
						CHANNELS 3 Xrotation Yrotation Zrotation
						End Site
						{
							OFFSET 0.000000 30.670187 0.000000
						}
					}
				}
				JOINT newVegas:Right_PantLeg
				{
					OFFSET -0.661674 -9.044716 -1.108900
					CHANNELS 3 Xrotation Yrotation Zrotation
					End Site
					{
						OFFSET -1.415958 20.635269 0.000000
					}
				}
			}
		}
	}
	JOINT newVegas:Spine
	{
		OFFSET 0.000000 10.199997 -0.299500
		CHANNELS 3 Xrotation Yrotation Zrotation
		JOINT newVegas:Spine1
		{
			OFFSET 0.000000 11.900002 -1.516600
			CHANNELS 3 Xrotation Yrotation Zrotation
			JOINT newVegas:Spine2
			{
				OFFSET 0.000000 13.600006 -2.842500
				CHANNELS 3 Xrotation Yrotation Zrotation
				JOINT newVegas:Neck
				{
					OFFSET 0.000000 9.624100 -2.890100
					CHANNELS 3 Xrotation Yrotation Zrotation
					JOINT newVegas:Head
					{
						OFFSET 0.000000 14.068802 -1.351900
						CHANNELS 3 Xrotation Yrotation Zrotation
						JOINT newVegas:Hair_Back
						{
							OFFSET 0.000000 3.231903 -17.524799
							CHANNELS 3 Xrotation Yrotation Zrotation
							End Site
							{
								OFFSET 0.000000 19.849884 0.000000
							}
						}
						JOINT newVegas:Hair_Front
						{
							OFFSET 0.000000 31.260406 4.573800
							CHANNELS 3 Xrotation Yrotation Zrotation
							JOINT newVegas:Hair_Front1
							{
								OFFSET 0.000000 2.284103 11.993300
								CHANNELS 3 Xrotation Yrotation Zrotation
								JOINT newVegas:Hair_Front2
								{
									OFFSET 0.000000 2.284103 11.993300
									CHANNELS 3 Xrotation Yrotation Zrotation
									End Site
									{
										OFFSET 0.000000 12.208862 0.000000
									}
								}
							}
						}
						JOINT newVegas:Jowel
						{
							OFFSET 0.000000 -7.458206 6.864100
							CHANNELS 3 Xrotation Yrotation Zrotation
							End Site
							{
								OFFSET 0.000000 19.849884 0.000000
							}
						}
					}
				}
				JOINT newVegas:LeftShoulder
				{
					OFFSET 15.263000 10.923401 -0.547700
					CHANNELS 3 Xrotation Yrotation Zrotation
					JOINT newVegas:LeftArm
					{
						OFFSET 25.438599 -2.830597 -13.032500
						CHANNELS 3 Xrotation Yrotation Zrotation
						JOINT newVegas:LeftForeArm
						{
							OFFSET 29.960503 0.000000 0.000000
							CHANNELS 3 Xrotation Yrotation Zrotation
							JOINT newVegas:LeftHand
							{
								OFFSET 27.849251 0.000000 0.000000
								CHANNELS 3 Xrotation Yrotation Zrotation
								JOINT newVegas:LeftHandThumb1
								{
									OFFSET 4.487587 -3.305161 6.305391
									CHANNELS 3 Xrotation Yrotation Zrotation
									JOINT newVegas:LeftHandThumb2
									{
										OFFSET 5.480453 -3.164139 3.164143
										CHANNELS 3 Xrotation Yrotation Zrotation
										JOINT newVegas:LeftHandThumb3
										{
											OFFSET 5.159721 -2.978973 2.978967
											CHANNELS 3 Xrotation Yrotation Zrotation
											End Site
											{
												OFFSET 2.494507 5.926697 1.738678
											}
										}
									}
								}
								JOINT newVegas:LeftHandIndex1
								{
									OFFSET 18.578728 -0.527832 5.208049
									CHANNELS 3 Xrotation Yrotation Zrotation
									JOINT newVegas:LeftHandIndex2
									{
										OFFSET 3.192009 0.000000 0.000000
										CHANNELS 3 Xrotation Yrotation Zrotation
										JOINT newVegas:LeftHandIndex3
										{
											OFFSET 3.835129 0.000000 0.000000
											CHANNELS 3 Xrotation Yrotation Zrotation
											End Site
											{
												OFFSET -0.034599 3.816971 0.371180
											}
										}
									}
								}
								JOINT newVegas:LeftHandMiddle1
								{
									OFFSET 18.476105 0.000000 0.000000
									CHANNELS 3 Xrotation Yrotation Zrotation
									JOINT newVegas:LeftHandMiddle2
									{
										OFFSET 3.324875 0.000000 0.000000
										CHANNELS 3 Xrotation Yrotation Zrotation
										JOINT newVegas:LeftHandMiddle3
										{
											OFFSET 4.596550 0.000000 0.000000
											CHANNELS 3 Xrotation Yrotation Zrotation
											End Site
											{
												OFFSET 0.057701 4.578827 0.399218
											}
										}
									}
								}
								JOINT newVegas:LeftHandRing1
								{
									OFFSET 17.732719 0.121887 -4.201567
									CHANNELS 3 Xrotation Yrotation Zrotation
									JOINT newVegas:LeftHandRing2
									{
										OFFSET 2.733170 0.000000 0.000000
										CHANNELS 3 Xrotation Yrotation Zrotation
										JOINT newVegas:LeftHandRing3
										{
											OFFSET 3.178268 0.000000 0.000000
											CHANNELS 3 Xrotation Yrotation Zrotation
											End Site
											{
												OFFSET 0.119102 3.170624 0.185394
											}
										}
									}
								}
								JOINT newVegas:LeftHandPinky1
								{
									OFFSET 15.989624 -0.606689 -7.535461
									CHANNELS 3 Xrotation Yrotation Zrotation
									JOINT newVegas:LeftHandPinky2
									{
										OFFSET 2.538986 0.000000 0.000000
										CHANNELS 3 Xrotation Yrotation Zrotation
										JOINT newVegas:LeftHandPinky3
										{
											OFFSET 2.593102 0.000000 0.000000
											CHANNELS 3 Xrotation Yrotation Zrotation
											End Site
											{
												OFFSET -0.150902 2.584198 0.152708
											}
										}
									}
								}
							}
							JOINT newVegas:Left_Sleeve
							{
								OFFSET 0.267448 -0.649796 0.577675
								CHANNELS 3 Xrotation Yrotation Zrotation
								End Site
								{
									OFFSET 0.000000 15.991241 0.000000
								}
							}
							JOINT newVegas:Left_CapeC
							{
								OFFSET 15.715958 -8.608795 -6.935905
								CHANNELS 3 Xrotation Yrotation Zrotation
								JOINT newVegas:Left_CapeC1
								{
									OFFSET 0.000000 -8.688499 0.000000
									CHANNELS 3 Xrotation Yrotation Zrotation
									End Site
									{
										OFFSET 0.000000 8.688499 0.000000
									}
								}
							}
						}
						JOINT newVegas:Left_CapeB
						{
							OFFSET 26.118385 -8.608795 -7.079235
							CHANNELS 3 Xrotation Yrotation Zrotation
							JOINT newVegas:Left_CapeB1
							{
								OFFSET 0.000000 -8.688499 0.000000
								CHANNELS 3 Xrotation Yrotation Zrotation
								End Site
								{
									OFFSET 0.000000 8.688499 0.000000
								}
							}
						}
						JOINT newVegas:Left_CapeA
						{
							OFFSET 5.115639 -8.608795 -10.395809
							CHANNELS 3 Xrotation Yrotation Zrotation
							JOINT newVegas:Left_CapeA1
							{
								OFFSET 0.000000 -8.688499 0.000000
								CHANNELS 3 Xrotation Yrotation Zrotation
								End Site
								{
									OFFSET 0.000000 8.688499 0.000000
								}
							}
						}
					}
				}
				JOINT newVegas:RightShoulder
				{
					OFFSET -15.263000 10.923401 -0.547700
					CHANNELS 3 Xrotation Yrotation Zrotation
					JOINT newVegas:RightArm
					{
						OFFSET -25.438599 -2.830597 -13.032500
						CHANNELS 3 Xrotation Yrotation Zrotation
						JOINT newVegas:RightForeArm
						{
							OFFSET -29.960503 0.000000 0.000000
							CHANNELS 3 Xrotation Yrotation Zrotation
							JOINT newVegas:RightHand
							{
								OFFSET -27.849251 0.000000 0.000000
								CHANNELS 3 Xrotation Yrotation Zrotation
								JOINT newVegas:RightHandThumb1
								{
									OFFSET -4.487587 -3.305161 6.305391
									CHANNELS 3 Xrotation Yrotation Zrotation
									JOINT newVegas:RightHandThumb2
									{
										OFFSET -5.480453 -3.164139 3.164143
										CHANNELS 3 Xrotation Yrotation Zrotation
										JOINT newVegas:RightHandThumb3
										{
											OFFSET -5.159721 -2.978973 2.978967
											CHANNELS 3 Xrotation Yrotation Zrotation
											End Site
											{
												OFFSET -2.494507 5.926697 1.738678
											}
										}
									}
								}
								JOINT newVegas:RightHandIndex1
								{
									OFFSET -18.578728 -0.527832 5.208049
									CHANNELS 3 Xrotation Yrotation Zrotation
									JOINT newVegas:RightHandIndex2
									{
										OFFSET -3.192009 0.000000 0.000000
										CHANNELS 3 Xrotation Yrotation Zrotation
										JOINT newVegas:RightHandIndex3
										{
											OFFSET -3.835129 0.000000 0.000000
											CHANNELS 3 Xrotation Yrotation Zrotation
											End Site
											{
												OFFSET 0.034599 3.816971 0.371180
											}
										}
									}
								}
								JOINT newVegas:RightHandMiddle1
								{
									OFFSET -18.476105 0.000000 0.000000
									CHANNELS 3 Xrotation Yrotation Zrotation
									JOINT newVegas:RightHandMiddle2
									{
										OFFSET -3.324875 0.000000 0.000000
										CHANNELS 3 Xrotation Yrotation Zrotation
										JOINT newVegas:RightHandMiddle3
										{
											OFFSET -4.596550 0.000000 0.000000
											CHANNELS 3 Xrotation Yrotation Zrotation
											End Site
											{
												OFFSET -0.057701 4.578827 0.399218
											}
										}
									}
								}
								JOINT newVegas:RightHandRing1
								{
									OFFSET -17.732719 0.121887 -4.201567
									CHANNELS 3 Xrotation Yrotation Zrotation
									JOINT newVegas:RightHandRing2
									{
										OFFSET -2.733170 0.000000 0.000000
										CHANNELS 3 Xrotation Yrotation Zrotation
										JOINT newVegas:RightHandRing3
										{
											OFFSET -3.178268 0.000000 0.000000
											CHANNELS 3 Xrotation Yrotation Zrotation
											End Site
											{
												OFFSET -0.119102 3.170624 0.185394
											}
										}
									}
								}
								JOINT newVegas:RightHandPinky1
								{
									OFFSET -15.989624 -0.606689 -7.535461
									CHANNELS 3 Xrotation Yrotation Zrotation
									JOINT newVegas:RightHandPinky2
									{
										OFFSET -2.538986 0.000000 0.000000
										CHANNELS 3 Xrotation Yrotation Zrotation
										JOINT newVegas:RightHandPinky3
										{
											OFFSET -2.593102 0.000000 0.000000
											CHANNELS 3 Xrotation Yrotation Zrotation
											End Site
											{
												OFFSET 0.150902 2.584198 0.152708
											}
										}
									}
								}
							}
							JOINT newVegas:Right_CapeC
							{
								OFFSET -15.715958 -8.608795 -6.935905
								CHANNELS 3 Xrotation Yrotation Zrotation
								JOINT newVegas:Right_CapeC1
								{
									OFFSET 0.000000 -8.688499 0.000000
									CHANNELS 3 Xrotation Yrotation Zrotation
									End Site
									{
										OFFSET 0.000000 8.688499 0.000000
									}
								}
							}
							JOINT newVegas:Right_Sleeve
							{
								OFFSET -0.267448 -0.649994 0.577675
								CHANNELS 3 Xrotation Yrotation Zrotation
								End Site
								{
									OFFSET 0.000000 15.991302 0.000000
								}
							}
						}
						JOINT newVegas:Right_CapeA
						{
							OFFSET -5.115540 -8.608795 -10.395824
							CHANNELS 3 Xrotation Yrotation Zrotation
							JOINT newVegas:Right_CapeA1
							{
								OFFSET 0.000000 -8.688499 0.000000
								CHANNELS 3 Xrotation Yrotation Zrotation
								End Site
								{
									OFFSET 0.000000 8.688499 0.000000
								}
							}
						}
						JOINT newVegas:Right_CapeB
						{
							OFFSET -26.118187 -8.608795 -7.079266
							CHANNELS 3 Xrotation Yrotation Zrotation
							JOINT newVegas:Right_CapeB1
							{
								OFFSET 0.000000 -8.688499 0.000000
								CHANNELS 3 Xrotation Yrotation Zrotation
								End Site
								{
									OFFSET 0.000000 8.688499 0.000000
								}
							}
						}
					}
				}
				JOINT newVegas:Left_Collar
				{
					OFFSET 18.625099 8.655502 8.828100
					CHANNELS 3 Xrotation Yrotation Zrotation
					JOINT newVegas:Left_Collar1
					{
						OFFSET 14.783401 10.540405 -1.259500
						CHANNELS 3 Xrotation Yrotation Zrotation
						End Site
						{
							OFFSET 0.000000 18.199875 0.000000
						}
					}
				}
				JOINT newVegas:Collar_Back
				{
					OFFSET 0.000000 15.630707 -20.132601
					CHANNELS 3 Xrotation Yrotation Zrotation
					End Site
					{
						OFFSET 0.000000 22.523010 0.000000
					}
				}
				JOINT newVegas:Left_Peck
				{
					OFFSET 17.239599 -5.132599 25.482599
					CHANNELS 3 Xrotation Yrotation Zrotation
					End Site
					{
						OFFSET 0.000000 22.523010 0.000000
					}
				}
				JOINT newVegas:Right_Peck
				{
					OFFSET -17.239599 -5.132202 25.482599
					CHANNELS 3 Xrotation Yrotation Zrotation
					End Site
					{
						OFFSET 0.000000 22.523010 0.000000
					}
				}
				JOINT newVegas:Right_Collar
				{
					OFFSET -18.625099 8.655792 8.828100
					CHANNELS 3 Xrotation Yrotation Zrotation
					JOINT newVegas:Right_Collar1
					{
						OFFSET -14.783401 10.539993 -1.259500
						CHANNELS 3 Xrotation Yrotation Zrotation
						End Site
						{
							OFFSET 0.000000 18.199631 0.000000
						}
					}
				}
			}
		}
		JOINT newVegas:Belly
		{
			OFFSET 0.000000 -6.540398 9.014299
			CHANNELS 3 Xrotation Yrotation Zrotation
			End Site
			{
				OFFSET 0.000000 11.566666 0.000000
			}
		}
	}
	JOINT newVegas:ElvisFacialAnim_Joint
	{
		OFFSET 1.000000 -95.330101 -8.825800
		CHANNELS 3 Xrotation Yrotation Zrotation
		End Site
		{
			OFFSET 0.000000 35.315800 0.000000
		}
	}
}
MOTION
Frames: 4
Frame Time: 0.033333
6.560173 87.459023 19.632120 -2.794882 -0.124265 16.034252 -0.000000 0.000000 -0.000001 -27.089321 -1.644037 -23.867616 23.245671 -4.596734 1.693843 5.510964 -5.063763 2.030695 0.000000 0.000000 0.000000 -0.000000 0.000002 0.000000 7.631469 -21.967116 -34.280644 29.214809 -12.695590 -14.121248 14.487668 -17.719215 32.327091 0.000002 -0.000003 0.000002 0.000000 0.000000 0.000001 1.549138 6.775580 3.787085 1.635233 5.913702 2.591571 1.674966 5.880819 2.613212 -0.708468 -0.178123 -1.685732 -0.708462 -0.178131 -1.685743 -0.000000 0.000002 -0.000002 -0.708474 -0.178119 -1.685720 -0.708391 -0.178111 -1.685738 0.000001 0.000001 -0.000000 -0.000000 0.000002 -0.000002 -0.080570 2.413798 3.339723 -37.704389 -41.208433 -27.012408 -0.000011 -117.975822 0.000005 21.558471 -21.190599 -27.780941 2.771032 3.202182 -11.750343 7.281927 15.699140 13.458073 0.000001 0.000002 -0.000002 3.214228 5.829184 -59.162279 2.821621 5.560795 -53.780650 -0.000002 0.000001 -0.000000 3.525872 6.011157 -60.791539 3.983616 6.244041 -65.044062 0.000006 0.000000 0.000000 4.045667 6.272976 -64.879940 3.563330 6.031840 -61.114805 -0.000002 -0.000001 0.000001 6.738243 7.521683 -64.939970 3.058205 1.637403 -56.291243 -0.000005 -0.000003 -0.000003 -0.000001 -0.000004 0.000002 -0.000001 -0.000004 0.000002 -0.000002 -0.000004 0.000002 -0.000001 -0.000004 -0.000003 -0.000002 -0.000004 -0.000003 -0.000001 -0.000004 -0.000003 -0.000002 -0.000005 -0.000003 0.134693 17.071429 13.441123 -23.290762 0.672606 45.110859 -0.001017 97.865286 0.001026 -71.550685 -1.090820 26.642889 2.101969 -10.083016 3.633757 25.660739 -30.716703 6.844831 0.000001 0.000001 -0.000000 9.556173 -7.137715 86.157912 10.350213 -6.061988 119.375560 -0.000000 -0.000001 0.000000 6.610146 -6.940028 87.289421 9.494153 -6.467111 111.542645 -0.000000 -0.000001 0.000000 1.946409 -7.142790 92.181121 8.379078 -6.799993 101.912310 0.000000 -0.000001 0.000000 -2.850649 -7.674995 94.127499 8.100925 -6.852391 99.572683 0.000002 0.000002 -0.000000 -0.000000 0.000005 -0.000000 -0.000000 0.000000 -0.000000 -0.000000 0.000005 -0.000000 0.000002 0.000002 -0.000000 0.000002 0.000003 -0.000000 0.000002 0.000002 -0.000000 0.000002 0.000003 -0.000000 0.000000 0.000000 0.000001 0.000000 0.000000 0.000001 0.000000 0.000000 0.000001 0.000000 0.000000 0.000001 0.000000 0.000000 0.000001 0.000000 0.000000 0.000001 0.000000 0.000000 0.000001 0.000000 -0.000001 -0.000000 -0.000000 0.000000 -0.000001 
6.644651 87.456558 19.387592 -4.137906 6.456563 16.998229 0.000000 -0.000001 0.000000 -25.813045 -2.418460 -25.599814 19.437486 -5.374719 1.956296 9.357670 -9.622913 2.115439 0.000000 -0.000000 -0.000000 0.000001 0.000000 -0.000001 8.784268 -26.465468 -36.200108 27.450004 -11.056195 -12.132621 20.611259 -12.755667 32.401946 0.000001 -0.000002 0.000000 -0.000001 -0.000003 -0.000001 0.954092 7.594650 3.684847 1.737103 6.563027 2.966957 1.730584 6.488853 3.064946 -1.300705 -0.068854 -3.065520 -1.300701 -0.068851 -3.065526 0.000000 -0.000001 -0.000000 -1.300696 -0.068850 -3.065524 -1.300706 -0.068845 -3.065536 0.000001 -0.000001 -0.000001 0.000000 -0.000001 -0.000000 -0.432693 3.404425 7.272767 -40.646343 -36.442276 -33.054301 -0.000008 -117.761928 0.000005 18.966413 -15.409424 -31.654017 2.771029 3.202182 -11.750342 7.281928 15.699137 13.458072 0.000002 0.000003 -0.000001 3.214227 5.829184 -59.162279 2.821621 5.560798 -53.780647 -0.000003 -0.000000 -0.000000 3.525870 6.011157 -60.791539 3.983615 6.244036 -65.044069 0.000001 0.000002 0.000001 4.045661 6.272974 -64.879926 3.563330 6.031841 -61.114811 -0.000001 0.000001 0.000001 6.738245 7.521681 -64.939977 3.058200 1.637396 -56.291243 -0.000001 0.000004 -0.000003 -0.000002 -0.000000 0.000001 -0.000002 -0.000000 0.000001 -0.000003 -0.000000 0.000001 -0.000000 -0.000002 -0.000000 -0.000000 -0.000003 -0.000001 -0.000000 -0.000002 -0.000000 -0.000001 -0.000003 0.000001 1.192917 16.782859 4.552310 -58.803277 7.243131 62.159127 0.001554 96.375472 -0.001492 -77.271269 -9.403743 32.862038 2.101954 -10.082981 3.633763 25.660739 -30.716730 6.844836 0.000003 -0.000002 -0.000001 9.556159 -7.137713 86.157919 10.350212 -6.062008 119.375546 0.000001 0.000000 0.000002 6.610143 -6.940031 87.289442 9.494154 -6.467114 111.542631 -0.000000 0.000000 0.000003 1.946403 -7.142763 92.181148 8.379069 -6.800007 101.912310 0.000001 0.000001 -0.000002 -2.850676 -7.674993 94.127506 8.100915 -6.852391 99.572649 0.000000 0.000002 -0.000002 0.000003 -0.000000 -0.000000 0.000001 -0.000001 -0.000000 0.000003 -0.000001 -0.000000 0.000001 0.000003 -0.000002 0.000001 0.000004 -0.000003 0.000001 0.000003 -0.000002 0.000001 0.000004 -0.000003 -0.000000 -0.000000 -0.000001 -0.000000 -0.000000 -0.000001 -0.000000 -0.000000 -0.000001 -0.000000 -0.000000 -0.000001 -0.000000 -0.000000 -0.000001 -0.000000 -0.000000 -0.000001 -0.000000 -0.000000 -0.000001 0.000000 0.000000 -0.000000 0.000000 -0.000001 0.000000 
6.429817 86.609673 18.902077 -5.284444 15.011523 17.539408 -0.000000 0.000000 0.000001 -28.413080 -2.833557 -27.563252 21.156757 -6.120498 2.922286 11.292920 -15.022740 1.856228 -0.000000 0.000000 -0.000000 0.000000 -0.000000 0.000000 11.950189 -30.661231 -34.990041 24.512914 -9.838069 -10.101106 27.735129 -7.139948 31.881445 -0.000000 -0.000002 -0.000001 0.000002 0.000001 -0.000000 0.600629 8.265830 3.045874 1.542320 6.937182 3.310389 1.451867 6.863048 3.436153 -1.758978 -0.091441 -3.683924 -1.758975 -0.091455 -3.683935 -0.000001 0.000001 -0.000001 -1.759042 -0.091428 -3.683917 -1.758955 -0.091415 -3.683936 0.000000 -0.000000 -0.000001 -0.000001 0.000001 -0.000001 -0.978156 5.150549 10.980527 -44.643643 -34.345159 -39.802197 -0.000003 -115.625458 0.000000 15.322962 -8.296740 -32.114829 2.771025 3.202178 -11.750341 7.281926 15.699133 13.458068 0.000001 -0.000000 -0.000003 3.214225 5.829181 -59.162279 2.821621 5.560798 -53.780653 -0.000002 0.000002 0.000001 3.525867 6.011155 -60.791539 3.983613 6.244042 -65.044069 -0.000003 -0.000001 0.000001 4.045661 6.272972 -64.879933 3.563328 6.031848 -61.114811 0.000003 0.000001 -0.000000 6.738242 7.521678 -64.939970 3.058203 1.637391 -56.291247 -0.000001 0.000000 0.000000 0.000002 0.000001 0.000000 0.000002 0.000001 0.000000 0.000001 0.000001 0.000000 -0.000002 -0.000001 0.000001 -0.000002 -0.000002 0.000001 -0.000002 -0.000001 0.000001 -0.000002 -0.000000 0.000001 1.441539 11.954790 -1.692270 -85.128350 7.767115 74.862206 0.005801 89.622443 -0.006373 -74.313688 -12.330884 48.371267 2.101965 -10.082997 3.633758 25.660749 -30.716710 6.844839 0.000002 0.000000 -0.000002 9.556179 -7.137714 86.157925 10.350197 -6.062010 119.375533 -0.000000 -0.000001 0.000000 6.610132 -6.940020 87.289435 9.494143 -6.467133 111.542631 -0.000001 -0.000001 -0.000001 1.946382 -7.142764 92.181128 8.379087 -6.800016 101.912310 -0.000000 0.000001 0.000001 -2.850651 -7.674988 94.127513 8.100942 -6.852390 99.572704 0.000002 -0.000000 -0.000000 0.000004 0.000000 0.000001 0.000001 0.000000 0.000000 0.000004 0.000000 -0.000000 0.000001 0.000000 0.000001 0.000001 0.000001 0.000003 0.000001 0.000000 0.000001 0.000001 0.000001 0.000004 -0.000000 -0.000001 -0.000001 -0.000000 -0.000001 -0.000001 -0.000000 -0.000001 -0.000001 -0.000000 -0.000001 -0.000001 -0.000000 -0.000001 -0.000001 -0.000000 -0.000001 -0.000001 -0.000000 -0.000001 -0.000001 -0.000000 -0.000000 0.000001 -0.000000 0.000000 0.000001 
5.862051 85.591240 18.592281 -6.321495 23.574806 17.490871 0.000001 0.000001 0.000001 -32.266712 -3.192166 -29.043942 25.252408 -6.844866 3.985493 11.865454 -19.942235 1.482724 -0.000000 0.000000 -0.000000 -0.000001 0.000000 -0.000000 18.989236 -31.109278 -28.450689 17.693943 -8.508643 -7.905380 37.499187 -1.733391 28.569435 -0.000002 -0.000001 0.000001 0.000000 0.000002 0.000003 0.396329 8.544743 2.014799 1.032774 6.936207 3.409375 0.858730 6.892796 3.505800 -1.819715 -0.311659 -3.587748 -1.819697 -0.311666 -3.587767 0.000000 0.000001 0.000000 -1.819721 -0.311688 -3.587740 -1.819635 -0.311644 -3.587757 -0.000000 -0.000001 -0.000001 0.000000 0.000001 0.000000 -1.499437 6.972931 12.993747 -48.441331 -34.368276 -44.827710 -0.000000 -112.597103 -0.000003 9.944439 -1.180434 -31.015838 2.771030 3.202180 -11.750342 7.281925 15.699139 13.458070 -0.000001 -0.000001 -0.000006 3.214227 5.829183 -59.162279 2.821619 5.560794 -53.780647 0.000001 -0.000002 -0.000000 3.525872 6.011156 -60.791539 3.983618 6.244040 -65.044069 -0.000002 -0.000001 -0.000001 4.045664 6.272974 -64.879933 3.563330 6.031845 -61.114811 0.000002 -0.000001 -0.000001 6.738242 7.521680 -64.939977 3.058204 1.637398 -56.291250 -0.000000 -0.000005 -0.000002 0.000002 -0.000001 -0.000000 0.000002 -0.000001 -0.000000 0.000001 -0.000000 0.000000 0.000000 -0.000001 0.000001 0.000000 -0.000002 0.000001 0.000000 -0.000001 0.000001 0.000001 -0.000001 0.000001 0.951027 6.131377 -5.693758 -94.843057 7.735730 77.158769 -0.002474 89.212024 0.001878 -77.759552 -8.493090 50.099612 2.101975 -10.083020 3.633762 25.660744 -30.716734 6.844842 -0.000000 0.000000 0.000001 9.556169 -7.137731 86.157932 10.350195 -6.062007 119.375519 -0.000001 -0.000000 0.000001 6.610152 -6.940043 87.289428 9.494159 -6.467114 111.542604 -0.000001 0.000000 0.000000 1.946402 -7.142787 92.181135 8.379084 -6.800013 101.912344 0.000002 0.000002 0.000002 -2.850662 -7.675003 94.127513 8.100920 -6.852395 99.572670 0.000001 0.000001 0.000002 0.000004 0.000001 -0.000001 0.000004 0.000001 -0.000001 0.000004 0.000001 -0.000001 0.000000 -0.000001 -0.000002 -0.000000 -0.000001 -0.000002 0.000000 -0.000001 -0.000002 0.000000 -0.000001 -0.000000 0.000000 0.000001 -0.000001 0.000000 0.000001 -0.000001 0.000000 0.000001 -0.000001 0.000000 0.000001 -0.000001 0.000000 0.000001 -0.000001 0.000000 0.000001 -0.000001 0.000000 0.000001 -0.000001 -0.000000 -0.000000 0.000001 0.000001 0.000001 0.000001 
